<?xml version="1.0" ?><!DOCTYPE svg  PUBLIC '-//W3C//DTD SVG 1.1//EN'  'http://www.w3.org/Graphics/SVG/1.1/DTD/svg11.dtd'><svg enable-background="new 0 0 512 512" height="512px" id="Layer_1" version="1.1" viewBox="0 0 512 512" width="512px" xml:space="preserve" xmlns="http://www.w3.org/2000/svg" xmlns:xlink="http://www.w3.org/1999/xlink"><g><path d="M437.008,74.985C390.661,28.629,326.588,0,255.992,0C185.261,0,121.188,28.629,74.983,74.985   C28.631,121.341,0,185.268,0,256s28.631,134.661,74.983,181.014C121.188,483.368,185.261,512,255.992,512   c70.596,0,134.669-28.632,181.016-74.986C483.359,390.661,512,326.732,512,256S483.359,121.341,437.008,74.985z"/><path clip-rule="evenodd" d="M386.546,249.479c-1.843-68.89-58.544-124.032-128.281-124.032   c-68.884,0-125.167,53.722-127.999,121.621c-0.282,1.701-0.282,3.686-0.282,5.526c0,23.961,6.8,46.498,18.428,65.774l-23.25,68.326   l71.156-22.54c18.428,10.064,39.552,15.737,61.947,15.737c70.878,0,128.418-56.844,128.418-127.298   C386.683,251.466,386.546,250.61,386.546,249.479L386.546,249.479z M317.087,278.398c-3.252-1.563-18.559-9.217-21.401-10.35   c-3.125-0.849-5.104-1.561-7.23,1.701c-1.988,3.12-8.082,10.062-9.915,12.046c-1.848,2.272-3.695,2.413-6.664,0.99   c-3.398-1.556-13.47-4.814-25.375-15.586c-9.496-8.368-15.873-18.431-17.574-21.409c-1.701-3.4-0.293-4.813,1.272-6.659   c1.56-1.274,3.256-3.402,4.821-5.39c0.424-0.419,0.849-0.848,1.131-1.416c0.854-1.277,1.272-2.27,1.984-3.686   c1.131-2.125,0.707-3.968-0.283-5.387c-0.565-1.561-6.941-17.15-9.643-23.249c-2.545-6.372-5.246-5.243-6.937-5.243   c-1.995,0-3.974-0.28-6.1-0.28c-2.276,0-5.528,0.707-8.36,3.968c-3.125,3.118-11.203,10.491-11.203,26.079   c0,3.545,0.707,7.23,1.843,10.494c2.979,11.198,10.063,20.127,11.062,21.689c1.561,2.12,21.685,34.583,53.713,47.057   c32.181,12.475,32.181,8.222,37.851,7.797c5.669-0.429,18.568-7.371,21.265-14.883c2.55-7.23,2.55-13.465,1.701-14.887   C322.332,280.807,320.207,279.812,317.087,278.398L317.087,278.398z M258.265,359.761c-21.83,0-42.237-6.521-59.251-17.719   l-41.39,13.183l13.324-39.832c-12.895-17.579-20.554-39.407-20.554-62.798c0-3.542,0.142-6.804,0.565-10.348   c5.388-54.286,51.451-96.668,107.305-96.668c56.696,0,103.331,43.515,107.582,98.654c0.288,2.835,0.288,5.67,0.288,8.361   C366.135,311.565,317.799,359.761,258.265,359.761L258.265,359.761z" fill="#FFFFFF" fill-rule="evenodd"/></g></svg>